# xmcd
#
# Track frame offsets: 
#        150
#        16796
#        39951
#        57877
#        84180
#        104551
#        122607
#        150950
#        172669
#        208447
#
# Disc length: 3141 seconds
#
# Revision: 0
# Processed by: cddbd v1.5.2PL0 Copyright (c) Steve Scherf et al.
# Submitted via: ExactAudioCopy v1.0b3
#
DISCID=6c0c430a
DTITLE=Thien Trang - Bong Nho Duong Chieu
DYEAR=1994
DGENRE=
TTITLE0=Dem tam su
TTITLE1=Do ai
TTITLE2=Em biet anh di chang tro ve
TTITLE3=Giac ngu co don
TTITLE4=Nguoi tinh khong den
TTITLE5=Bong nho duong chieu
TTITLE6=Tam diep khuc
TTITLE7=Tieng hat hau phuong
TTITLE8=Nhung con duong trang
TTITLE9=LK Chieu thuong do thi, Thiep hong anh viet ten em
EXTD=
EXTT0=
EXTT1=
EXTT2=
EXTT3=
EXTT4=
EXTT5=
EXTT6=
EXTT7=
EXTT8=
EXTT9=
PLAYORDER=
